<?xml version="1.0" encoding="UTF-8"?>
<svg width="117px" height="30px" viewBox="0 0 117 30" version="1.1" xmlns="http://www.w3.org/2000/svg" xmlns:xlink="http://www.w3.org/1999/xlink">
    <title>F8D98EEC-AE35-427C-A824-EA446F174A66</title>
    <g id="Desktop" stroke="none" stroke-width="1" fill="none" fill-rule="evenodd">
        <g id="T4C---Global-Search" transform="translate(-160.000000, -72.000000)" fill-rule="nonzero">
            <g id="Footer/Desktop-Footer/Default-Copy" transform="translate(120.000000, 0.000000)">
                <g id="Logo-/-Abbott-/-White" transform="translate(40.009808, 72.013827)">
                    <path d="M31.3286337,0 L0,0 L0,4.90506791 L29.7646631,4.90506791 L29.7646631,4.90940318 C30.6262902,4.90940318 31.3142579,5.6133577 31.3142579,6.48732521 L31.3142579,22.9586658 L31.3104626,22.972609 C31.3051724,23.8427099 30.6103044,24.5419776 29.7578778,24.5419776 L6.36686326,24.5419776 C5.51052643,24.5419776 4.80967809,23.8370858 4.80967809,22.9585487 L4.80967809,16.304374 C4.80967809,15.4304065 5.51052643,14.720945 6.36686326,14.720945 L26.4910091,14.720945 L26.4910091,9.82243862 L4.80047758,9.82243862 C2.14923756,9.82243862 0,12.008119 0,14.7073534 L0,24.5558036 C0,27.2569128 2.14923756,29.4457567 4.80047758,29.4457567 L31.3286337,29.4457567 C33.9821738,29.4457567 36.1283062,27.2569128 36.1283062,24.5558036 L36.1283062,4.89147624 C36.1283062,2.19071864 33.9821738,0 31.3286337,0" id="Shape" fill="#159BD7"></path>
                    <g id="Abbott" transform="translate(43.347481, 6.899059)" fill="#FFFFFF">
                        <path d="M5.81989334,8.3852372 L9.07813657,8.3852372 L7.46413828,3.45872727 L7.41940084,3.45872727 L5.81989334,8.3852372 Z M10.565973,0.0546009996 L14.3192033,11.4925731 C14.7646226,12.8880621 15.0799698,13.2109813 15.8621277,13.2109813 L16.6251944,13.2109813 L16.6251944,15.2245396 L8.42996111,15.2245396 L8.42996111,13.2109813 L9.10205788,13.2109813 C9.77576473,13.2109813 10.3360754,13.1198235 10.3360754,12.8710725 C10.3360754,12.6360305 10.3136491,12.3847018 10.2234842,12.0406921 L9.75494859,10.3971552 L5.17332797,10.3971552 L4.899498,11.312835 C4.65441959,12.1114625 4.56344961,12.4505511 4.56344961,12.7718299 C4.56344961,13.1410312 5.35204776,13.2109813 5.96273116,13.2109813 L6.60849148,13.2109813 L6.60849148,15.2245396 L0.00655535857,15.2245396 L0.00655535857,13.2109813 L0.771232186,13.2109813 C1.55741519,13.2109813 1.8664371,12.8880621 2.32220703,11.4925731 L6.07221715,0.0546009996 L10.565973,0.0546009996 Z" id="Shape"></path>
                        <path d="M21.6594798,9.86614286 C21.6594798,12.2041436 22.1743629,13.5972893 23.4306916,13.5972893 C24.6950708,13.5972893 25.2059287,12.2041436 25.2059287,9.86614286 C25.2059287,7.53458643 24.6950708,6.13991755 23.4306916,6.13991755 C22.1743629,6.13991755 21.6594798,7.53458643 21.6594798,9.86614286 L21.6594798,9.86614286 Z M17.9278706,2.86995039 C17.9278706,2.22352612 17.771347,1.88432034 17.1200665,1.88432034 L16.088,1.88432034 L16.088,0.0546009996 L21.6594798,0.0546009996 L21.6594798,5.74880568 C22.4887901,4.78754688 23.546503,4.17029781 24.552118,4.17029781 C27.9222623,4.17029781 29.1777861,6.85230829 29.1777861,9.86614286 C29.1777861,12.8880621 27.9222623,15.5636283 24.552118,15.5636283 C23.1377706,15.5636283 21.8789118,15.0610882 21.0958339,13.8022188 L20.4469684,15.2261801 L17.9278706,15.2261801 L17.9278706,2.86995039 Z" id="Shape"></path>
                        <path d="M34.2577288,9.86614286 C34.2577288,12.2041436 34.7789374,13.5972893 36.0336561,13.5972893 C37.2925149,13.5972893 37.806478,12.2041436 37.806478,9.86614286 C37.806478,7.53458643 37.2923999,6.13991755 36.0336561,6.13991755 C34.7789374,6.13991755 34.2577288,7.53458643 34.2577288,9.86614286 L34.2577288,9.86614286 Z M30.5276149,2.86995039 C30.5276149,2.22352612 30.3694812,1.88432034 29.7246409,1.88432034 L28.6893542,1.88432034 L28.6893542,0.0546009996 L34.2577288,0.0546009996 L34.2577288,5.74880568 C35.0910645,4.78754688 36.1447521,4.17029781 37.1551974,4.17029781 C40.5252267,4.17029781 41.7840855,6.85230829 41.7840855,9.86614286 C41.7840855,12.8880621 40.5252267,15.5636283 37.1551974,15.5636283 C35.740735,15.5636283 34.4819911,15.0610882 33.6973032,13.8022188 L33.0436075,15.2261801 L30.5276149,15.2261801 L30.5276149,2.86995039 L30.5276149,2.86995039 Z" id="Shape"></path>
                        <path d="M46.8366569,9.86696304 C46.8366569,12.5660802 47.3076077,13.7337917 48.6558265,13.7337917 C50.0016301,13.7337917 50.4717758,12.5660802 50.4717758,9.86696304 C50.4717758,7.16784582 50.0016301,6.00165751 48.6558265,6.00165751 C47.3076077,6.00165751 46.8366569,7.16784582 46.8366569,9.86696304 M54.4500734,9.86696304 C54.4500734,13.5296825 52.0003244,15.5636283 48.6558265,15.5636283 C45.3040831,15.5636283 42.8600844,13.5296825 42.8600844,9.86696304 C42.8600844,6.20658702 45.3041981,4.17029781 48.6558265,4.17029781 C52.0003244,4.17029781 54.4500734,6.20658702 54.4500734,9.86696304" id="Shape"></path>
                        <path d="M70.4628593,10.0523252 L70.4628593,11.8365828 C70.4628593,12.8880621 70.2400921,13.5102323 69.3860554,13.5102323 C68.8703672,13.5102323 68.6252887,13.1183003 68.6252887,12.6360305 L68.6252887,6.34496423 L71.3823345,6.34496423 L71.3823345,4.51360452 L68.6254037,4.51360452 L68.6254037,0.263514266 L66.3977319,0.263514266 C66.2156769,2.15920004 65.6338602,4.51348735 63.3884773,4.51348735 L59.8859607,4.51348735 L59.8859607,0.263514266 L57.6644992,0.263514266 C57.4832493,2.15920004 56.8982123,4.51348735 54.6552446,4.51348735 L54.6552446,6.34484706 L56.1590668,6.34484706 L56.1590668,12.0869741 C56.1590668,14.4216941 57.4386268,15.5635111 59.7478382,15.5635111 C62.4489909,15.5635111 63.5202745,14.3314735 63.5202745,12.0869741 L63.5202745,10.0522081 L61.7296266,10.0522081 L61.7296266,11.8364656 C61.7296266,12.8879449 61.5029492,13.5101151 60.6521327,13.5101151 C60.1309242,13.5101151 59.8858458,13.1181831 59.8858458,12.6359133 L59.8858458,6.34484706 L64.90012,6.34484706 L64.90012,12.0869741 C64.90012,14.4216941 66.1740447,15.5635111 68.4880863,15.5635111 C71.1819937,15.5635111 72.2628228,14.3314735 72.2628228,12.0869741 L72.2628228,10.0522081 L70.4628593,10.0522081 L70.4628593,10.0523252 Z" id="Path"></path>
                    </g>
                </g>
            </g>
        </g>
    </g>
</svg>